{
  "accessors": [
    {
      "bufferView": 2,
      "componentType": 5126,
      "count": 65532,
      "max": [
        0.93555498123168945,
        0.42252999544143677,
        0.13258999586105347
      ],
      "min": [
        -0.25088599324226379,
        -0.40358000993728638,
        -0.88839298486709595
      ],
      "type": "VEC3"
    },
    {
      "bufferView": 2,
      "byteOffset": 786384,
      "componentType": 5126,
      "count": 65532,
      "max": [
        0.99986302852630615,
        0.99496918916702271,
        0.99601459503173828
      ],
      "min": [
        -0.99581694602966309,
        -0.99960815906524658,
        -0.99996668100357056
      ],
      "type": "VEC3"
    },
    {
      "bufferView": 3,
      "componentType": 5126,
      "count": 65532,
      "max": [
        0.99987280368804932,
        0.99980020523071289,
        0.99851953983306885,
        1
      ],
      "min": [
        -0.99538224935531616,
        -0.99977320432662964,
        -0.99851810932159424,
        -1
      ],
      "type": "VEC4"
    },
    {
      "bufferView": 2,
      "byteOffset": 1572768,
      "componentType": 5126,
      "count": 65532,
      "max": [
        0.92941176891326904,
        0.71764707565307617,
        0.50980395078659058
      ],
      "min": [
        0.086274512112140656,
        0.043137256056070328,
        0
      ],
      "type": "VEC3"
    },
    {
      "bufferView": 1,
      "componentType": 5126,
      "count": 65532,
      "max": [
        0.9106450080871582,
        0.9698600172996521
      ],
      "min": [
        0.0026529999449849129,
        0
      ],
      "type": "VEC2"
    },
    {
      "bufferView": 0,
      "componentType": 5125,
      "count": 368445,
      "max": [
        65531
      ],
      "min": [
        0
      ],
      "type": "SCALAR"
    },
    {
      "bufferView": 2,
      "byteOffset": 2359152,
      "componentType": 5126,
      "count": 65532,
      "max": [
        0.58866798877716064,
        0.36331099271774292,
        0.85954397916793823
      ],
      "min": [
        -0.6098170280456543,
        -0.53560900688171387,
        -0.64749902486801147
      ],
      "type": "VEC3"
    },
    {
      "bufferView": 2,
      "byteOffset": 3145536,
      "componentType": 5126,
      "count": 65532,
      "max": [
        0.96846151351928711,
        0.99992042779922485,
        0.99972498416900635
      ],
      "min": [
        -0.99745959043502808,
        -0.9998595118522644,
        -0.99890685081481934
      ],
      "type": "VEC3"
    },
    {
      "bufferView": 3,
      "byteOffset": 1048512,
      "componentType": 5126,
      "count": 65532,
      "max": [
        0.99998217821121216,
        0.95623117685317993,
        0.99462926387786865,
        1
      ],
      "min": [
        -0.99538224935531616,
        -0.99879461526870728,
        -0.9910353422164917,
        -1
      ],
      "type": "VEC4"
    },
    {
      "bufferView": 2,
      "byteOffset": 3931920,
      "componentType": 5126,
      "count": 65532,
      "max": [
        0.7921568751335144,
        0.58039218187332153,
        0.43529412150382996
      ],
      "min": [
        0.070588238537311554,
        0.035294119268655777,
        0
      ],
      "type": "VEC3"
    },
    {
      "bufferView": 1,
      "byteOffset": 524256,
      "componentType": 5126,
      "count": 65532,
      "max": [
        0.93788999319076538,
        0.98896998167037964
      ],
      "min": [
        0.0090089999139308929,
        0.038715999573469162
      ],
      "type": "VEC2"
    },
    {
      "bufferView": 0,
      "byteOffset": 1473780,
      "componentType": 5125,
      "count": 341832,
      "max": [
        65531
      ],
      "min": [
        0
      ],
      "type": "SCALAR"
    },
    {
      "bufferView": 2,
      "byteOffset": 4718304,
      "componentType": 5126,
      "count": 65532,
      "max": [
        0.1421470046043396,
        0.10330300033092499,
        0.85997301340103149
      ],
      "min": [
        -0.93823701143264771,
        -0.73351997137069702,
        -0.083319999277591705
      ],
      "type": "VEC3"
    },
    {
      "bufferView": 2,
      "byteOffset": 5504688,
      "componentType": 5126,
      "count": 65532,
      "max": [
        0.99837183952331543,
        0.99988901615142822,
        0.99960923194885254
      ],
      "min": [
        -0.99954092502593994,
        -0.99994903802871704,
        -0.99922508001327515
      ],
      "type": "VEC3"
    },
    {
      "bufferView": 3,
      "byteOffset": 2097024,
      "componentType": 5126,
      "count": 65532,
      "max": [
        0.99998629093170166,
        0.94987881183624268,
        0.99290680885314941,
        1
      ],
      "min": [
        -0.99943834543228149,
        -0.99879461526870728,
        -0.96617424488067627,
        -1
      ],
      "type": "VEC4"
    },
    {
      "bufferView": 2,
      "byteOffset": 6291072,
      "componentType": 5126,
      "count": 65532,
      "max": [
        0.82352942228317261,
        0.61568629741668701,
        0.47843137383460999
      ],
      "min": [
        0.074509806931018829,
        0.035294119268655777,
        0
      ],
      "type": "VEC3"
    },
    {
      "bufferView": 1,
      "byteOffset": 1048512,
      "componentType": 5126,
      "count": 65532,
      "max": [
        0.99417001008987427,
        1
      ],
      "min": [
        0.00096299999859184027,
        0.10910200327634811
      ],
      "type": "VEC2"
    },
    {
      "bufferView": 0,
      "byteOffset": 2841108,
      "componentType": 5125,
      "count": 338571,
      "max": [
        65531
      ],
      "min": [
        0
      ],
      "type": "SCALAR"
    },
    {
      "bufferView": 2,
      "byteOffset": 7077456,
      "componentType": 5126,
      "count": 45174,
      "max": [
        -0.20920500159263611,
        0.032122999429702759,
        0.87641900777816772
      ],
      "min": [
        -0.93853002786636353,
        -0.73306900262832642,
        -0.0054339999333024025
      ],
      "type": "VEC3"
    },
    {
      "bufferView": 2,
      "byteOffset": 7619544,
      "componentType": 5126,
      "count": 45174,
      "max": [
        0.99752044677734375,
        0.99960678815841675,
        0.99986225366592407
      ],
      "min": [
        -0.99996089935302734,
        -0.99981915950775146,
        -0.99760532379150391
      ],
      "type": "VEC3"
    },
    {
      "bufferView": 3,
      "byteOffset": 3145536,
      "componentType": 5126,
      "count": 45174,
      "max": [
        0.99998217821121216,
        0.90741658210754395,
        0.92673444747924805,
        1
      ],
      "min": [
        -0.9999963641166687,
        -0.9539649486541748,
        -0.99168229103088379,
        -1
      ],
      "type": "VEC4"
    },
    {
      "bufferView": 2,
      "byteOffset": 8161632,
      "componentType": 5126,
      "count": 45174,
      "max": [
        0.90588235855102539,
        0.70980393886566162,
        0.5372549295425415
      ],
      "min": [
        0.070588238537311554,
        0.039215687662363052,
        0
      ],
      "type": "VEC3"
    },
    {
      "bufferView": 1,
      "byteOffset": 1572768,
      "componentType": 5126,
      "count": 45174,
      "max": [
        0.99420297145843506,
        0.99588799476623535
      ],
      "min": [
        6.0000002122251317e-06,
        0.14129400253295898
      ],
      "type": "VEC2"
    },
    {
      "bufferView": 0,
      "byteOffset": 4195392,
      "componentType": 5125,
      "count": 233151,
      "max": [
        45173
      ],
      "min": [
        0
      ],
      "type": "SCALAR"
    },
    {
      "bufferView": 2,
      "byteOffset": 8703720,
      "componentType": 5126,
      "count": 65532,
      "max": [
        0.93464499711990356,
        0.71511000394821167,
        0.1994359940290451
      ],
      "min": [
        -0.041255000978708267,
        -0.090660996735095978,
        -0.889801025390625
      ],
      "type": "VEC3"
    },
    {
      "bufferView": 2,
      "byteOffset": 9490104,
      "componentType": 5126,
      "count": 65532,
      "max": [
        0.99993246793746948,
        0.999503493309021,
        0.99998950958251953
      ],
      "min": [
        -0.97489243745803833,
        -0.98855990171432495,
        -0.999855637550354
      ],
      "type": "VEC3"
    },
    {
      "bufferView": 3,
      "byteOffset": 3868320,
      "componentType": 5126,
      "count": 65532,
      "max": [
        0.99999719858169556,
        0.9998784065246582,
        0.97421121597290039,
        1
      ],
      "min": [
        -0.98844671249389648,
        -0.96184688806533813,
        -0.99686813354492188,
        -1
      ],
      "type": "VEC4"
    },
    {
      "bufferView": 2,
      "byteOffset": 10276488,
      "componentType": 5126,
      "count": 65532,
      "max": [
        0.7137255072593689,
        0.52549022436141968,
        0.39215686917304993
      ],
      "min": [
        0.10196078568696976,
        0.043137256056070328,
        0
      ],
      "type": "VEC3"
    },
    {
      "bufferView": 1,
      "byteOffset": 1934160,
      "componentType": 5126,
      "count": 65532,
      "max": [
        0.88613498210906982,
        0.91813099384307861
      ],
      "min": [
        0.028284000232815742,
        0.0010550000006332994
      ],
      "type": "VEC2"
    },
    {
      "bufferView": 0,
      "byteOffset": 5127996,
      "componentType": 5125,
      "count": 364803,
      "max": [
        65531
      ],
      "min": [
        0
      ],
      "type": "SCALAR"
    },
    {
      "bufferView": 2,
      "byteOffset": 11062872,
      "componentType": 5126,
      "count": 65532,
      "max": [
        0.93085598945617676,
        0.71486800909042358,
        0.31028801202774048
      ],
      "min": [
        -0.24812600016593933,
        -0.21347999572753906,
        -0.88976597785949707
      ],
      "type": "VEC3"
    },
    {
      "bufferView": 2,
      "byteOffset": 11849256,
      "componentType": 5126,
      "count": 65532,
      "max": [
        0.99822252988815308,
        0.99995380640029907,
        0.99999284744262695
      ],
      "min": [
        -0.99513530731201172,
        -0.99936038255691528,
        -0.99904346466064453
      ],
      "type": "VEC3"
    },
    {
      "bufferView": 3,
      "byteOffset": 4916832,
      "componentType": 5126,
      "count": 65532,
      "max": [
        0.9998399019241333,
        0.99997663497924805,
        0.99533641338348389,
        1
      ],
      "min": [
        -0.97134387493133545,
        -0.99383556842803955,
        -0.99632984399795532,
        -1
      ],
      "type": "VEC4"
    },
    {
      "bufferView": 2,
      "byteOffset": 12635640,
      "componentType": 5126,
      "count": 65532,
      "max": [
        0.72156864404678345,
        0.52549022436141968,
        0.39215686917304993
      ],
      "min": [
        0.10980392247438431,
        0.043137256056070328,
        0
      ],
      "type": "VEC3"
    },
    {
      "bufferView": 1,
      "byteOffset": 2458416,
      "componentType": 5126,
      "count": 65532,
      "max": [
        0.91789400577545166,
        0.99649500846862793
      ],
      "min": [
        0,
        0
      ],
      "type": "VEC2"
    },
    {
      "bufferView": 0,
      "byteOffset": 6587208,
      "componentType": 5125,
      "count": 329079,
      "max": [
        65531
      ],
      "min": [
        0
      ],
      "type": "SCALAR"
    },
    {
      "bufferView": 2,
      "byteOffset": 13422024,
      "componentType": 5126,
      "count": 65532,
      "max": [
        0.67363297939300537,
        0.6036980152130127,
        0.33534500002861023
      ],
      "min": [
        -0.72903597354888916,
        -0.38499900698661804,
        -0.56171399354934692
      ],
      "type": "VEC3"
    },
    {
      "bufferView": 2,
      "byteOffset": 14208408,
      "componentType": 5126,
      "count": 65532,
      "max": [
        0.99936622381210327,
        0.99995380640029907,
        0.99945193529129028
      ],
      "min": [
        -0.99885684251785278,
        -0.99994140863418579,
        -0.99981075525283813
      ],
      "type": "VEC3"
    },
    {
      "bufferView": 3,
      "byteOffset": 5965344,
      "componentType": 5126,
      "count": 65532,
      "max": [
        0.99832522869110107,
        0.99997663497924805,
        0.99947875738143921,
        1
      ],
      "min": [
        -0.99534255266189575,
        -0.99899977445602417,
        -0.99948549270629883,
        -1
      ],
      "type": "VEC4"
    },
    {
      "bufferView": 2,
      "byteOffset": 14994792,
      "componentType": 5126,
      "count": 65532,
      "max": [
        0.78823530673980713,
        0.61176472902297974,
        0.45098039507865906
      ],
      "min": [
        0.074509806931018829,
        0.039215687662363052,
        0
      ],
      "type": "VEC3"
    },
    {
      "bufferView": 1,
      "byteOffset": 2982672,
      "componentType": 5126,
      "count": 65532,
      "max": [
        0.97252398729324341,
        1
      ],
      "min": [
        0.078302003443241119,
        0
      ],
      "type": "VEC2"
    },
    {
      "bufferView": 0,
      "byteOffset": 7903524,
      "componentType": 5125,
      "count": 335283,
      "max": [
        65531
      ],
      "min": [
        0
      ],
      "type": "SCALAR"
    },
    {
      "bufferView": 2,
      "byteOffset": 15781176,
      "componentType": 5126,
      "count": 44446,
      "max": [
        -0.033236999064683914,
        0.36694499850273132,
        0.59679597616195679
      ],
      "min": [
        -0.9110569953918457,
        -0.51776802539825439,
        -0.37468200922012329
      ],
      "type": "VEC3"
    },
    {
      "bufferView": 2,
      "byteOffset": 16314528,
      "componentType": 5126,
      "count": 44446,
      "max": [
        0.99202919006347656,
        0.99990642070770264,
        0.99980330467224121
      ],
      "min": [
        -0.99966228008270264,
        -0.99952501058578491,
        -0.99780535697937012
      ],
      "type": "VEC3"
    },
    {
      "bufferView": 3,
      "byteOffset": 7013856,
      "componentType": 5126,
      "count": 44446,
      "max": [
        0.99705415964126587,
        0.99970877170562744,
        0.99947875738143921,
        1
      ],
      "min": [
        -0.9897879958152771,
        -0.99885690212249756,
        -0.9999815821647644,
        -1
      ],
      "type": "VEC4"
    },
    {
      "bufferView": 2,
      "byteOffset": 16847880,
      "componentType": 5126,
      "count": 44446,
      "max": [
        0.80392158031463623,
        0.60784316062927246,
        0.46274510025978088
      ],
      "min": [
        0.098039217293262482,
        0.047058824449777603,
        0
      ],
      "type": "VEC3"
    },
    {
      "bufferView": 1,
      "byteOffset": 3506928,
      "componentType": 5126,
      "count": 44446,
      "max": [
        0.96929502487182617,
        1
      ],
      "min": [
        0.10312400013208389,
        0.0045819999650120735
      ],
      "type": "VEC2"
    },
    {
      "bufferView": 0,
      "byteOffset": 9244656,
      "componentType": 5125,
      "count": 229908,
      "max": [
        44445
      ],
      "min": [
        0
      ],
      "type": "SCALAR"
    }
  ],
  "asset": {
    "extras": {
      "author": "Land of Iron (https://sketchfab.com/landofiron)",
      "license": "CC-BY-4.0 (http://creativecommons.org/licenses/by/4.0/)",
      "source": "https://sketchfab.com/3d-models/grosmont-brick-aa257a4d2e154e58b8a6b26e940159d7",
      "title": "Grosmont Brick"
    },
    "generator": "Sketchfab-5.47.0",
    "version": "2.0"
  },
  "bufferViews": [
    {
      "buffer": 0,
      "byteLength": 10164288,
      "byteOffset": 0,
      "name": "floatBufferViews",
      "target": 34963
    },
    {
      "buffer": 0,
      "byteLength": 3862496,
      "byteOffset": 10164288,
      "byteStride": 8,
      "name": "floatBufferViews",
      "target": 34962
    },
    {
      "buffer": 0,
      "byteLength": 17381232,
      "byteOffset": 14026784,
      "byteStride": 12,
      "name": "floatBufferViews",
      "target": 34962
    },
    {
      "buffer": 0,
      "byteLength": 7724992,
      "byteOffset": 31408016,
      "byteStride": 16,
      "name": "floatBufferViews",
      "target": 34962
    }
  ],
  "buffers": [
    {
      "byteLength": 39133008,
      "uri": "scene.bin"
    }
  ],
  "extensionsUsed": [
    "KHR_materials_unlit"
  ],
  "images": [
    {
      "uri": "textures/mat-0_baseColor.jpeg"
    },
    {
      "uri": "textures/mat-1_baseColor.jpeg"
    }
  ],
  "materials": [
    {
      "doubleSided": true,
      "emissiveFactor": [
        0,
        0,
        0
      ],
      "extensions": {
        "KHR_materials_unlit": {}
      },
      "name": "mat-0",
      "pbrMetallicRoughness": {
        "baseColorFactor": [
          1,
          1,
          1,
          1
        ],
        "baseColorTexture": {
          "index": 0,
          "texCoord": 0
        },
        "metallicFactor": 0,
        "roughnessFactor": 1
      }
    },
    {
      "doubleSided": true,
      "emissiveFactor": [
        0,
        0,
        0
      ],
      "extensions": {
        "KHR_materials_unlit": {}
      },
      "name": "mat-1",
      "pbrMetallicRoughness": {
        "baseColorFactor": [
          1,
          1,
          1,
          1
        ],
        "baseColorTexture": {
          "index": 1,
          "texCoord": 0
        },
        "metallicFactor": 0,
        "roughnessFactor": 1
      }
    }
  ],
  "meshes": [
    {
      "name": "mat-0",
      "primitives": [
        {
          "attributes": {
            "COLOR_0": 3,
            "NORMAL": 1,
            "POSITION": 0,
            "TANGENT": 2,
            "TEXCOORD_0": 4
          },
          "indices": 5,
          "material": 0,
          "mode": 4
        }
      ]
    },
    {
      "name": "mat-0",
      "primitives": [
        {
          "attributes": {
            "COLOR_0": 9,
            "NORMAL": 7,
            "POSITION": 6,
            "TANGENT": 8,
            "TEXCOORD_0": 10
          },
          "indices": 11,
          "material": 0,
          "mode": 4
        }
      ]
    },
    {
      "name": "mat-0",
      "primitives": [
        {
          "attributes": {
            "COLOR_0": 15,
            "NORMAL": 13,
            "POSITION": 12,
            "TANGENT": 14,
            "TEXCOORD_0": 16
          },
          "indices": 17,
          "material": 0,
          "mode": 4
        }
      ]
    },
    {
      "name": "mat-0",
      "primitives": [
        {
          "attributes": {
            "COLOR_0": 21,
            "NORMAL": 19,
            "POSITION": 18,
            "TANGENT": 20,
            "TEXCOORD_0": 22
          },
          "indices": 23,
          "material": 0,
          "mode": 4
        }
      ]
    },
    {
      "name": "mat-1",
      "primitives": [
        {
          "attributes": {
            "COLOR_0": 27,
            "NORMAL": 25,
            "POSITION": 24,
            "TANGENT": 26,
            "TEXCOORD_0": 28
          },
          "indices": 29,
          "material": 1,
          "mode": 4
        }
      ]
    },
    {
      "name": "mat-1",
      "primitives": [
        {
          "attributes": {
            "COLOR_0": 33,
            "NORMAL": 31,
            "POSITION": 30,
            "TANGENT": 32,
            "TEXCOORD_0": 34
          },
          "indices": 35,
          "material": 1,
          "mode": 4
        }
      ]
    },
    {
      "name": "mat-1",
      "primitives": [
        {
          "attributes": {
            "COLOR_0": 39,
            "NORMAL": 37,
            "POSITION": 36,
            "TANGENT": 38,
            "TEXCOORD_0": 40
          },
          "indices": 41,
          "material": 1,
          "mode": 4
        }
      ]
    },
    {
      "name": "mat-1",
      "primitives": [
        {
          "attributes": {
            "COLOR_0": 45,
            "NORMAL": 43,
            "POSITION": 42,
            "TANGENT": 44,
            "TEXCOORD_0": 46
          },
          "indices": 47,
          "material": 1,
          "mode": 4
        }
      ]
    }
  ],
  "nodes": [
    {
      "children": [
        1
      ],
      "name": "RootNode (gltf orientation matrix)",
      "rotation": [
        -0.70710678118654746,
        -0,
        -0,
        0.70710678118654757
      ]
    },
    {
      "children": [
        2
      ],
      "matrix": [
        1,
        0,
        0,
        0,
        0,
        0.58868330717086792,
        0.80836373567581177,
        0,
        0,
        -0.80836373567581177,
        0.58868330717086792,
        0,
        0,
        -0.0092015350237488747,
        0.0046839453279972076,
        1
      ],
      "name": "RootNode (model correction matrix)"
    },
    {
      "children": [
        3
      ],
      "name": "Collada visual scene group"
    },
    {
      "children": [
        4,
        5,
        6,
        7,
        8,
        9,
        10,
        11
      ],
      "name": "mesh1"
    },
    {
      "mesh": 0,
      "name": "mat-0"
    },
    {
      "mesh": 1,
      "name": "mat-0"
    },
    {
      "mesh": 2,
      "name": "mat-0"
    },
    {
      "mesh": 3,
      "name": "mat-0"
    },
    {
      "mesh": 4,
      "name": "mat-1"
    },
    {
      "mesh": 5,
      "name": "mat-1"
    },
    {
      "mesh": 6,
      "name": "mat-1"
    },
    {
      "mesh": 7,
      "name": "mat-1"
    }
  ],
  "samplers": [
    {
      "magFilter": 9729,
      "minFilter": 9987,
      "wrapS": 10497,
      "wrapT": 10497
    }
  ],
  "scene": 0,
  "scenes": [
    {
      "name": "OSG_Scene",
      "nodes": [
        0
      ]
    }
  ],
  "textures": [
    {
      "sampler": 0,
      "source": 0
    },
    {
      "sampler": 0,
      "source": 1
    }
  ]
}

